{"title":"The Darkest Minds 2018 1080p WEB-DL DD 5.1 x264 [MW]","magnet":"magnet:?xt=urn:btih:2133613badda0626f46e25c6766b37a0d7b979ee&dn=The+Darkest+Minds+2018+1080p+WEB-DL+DD+5.1+x264+%5BMW%5D&tr=udp%3A%2F%2Ftracker.leechers-paradise.org%3A6969&tr=udp%3A%2F%2Fzer0day.ch%3A1337&tr=udp%3A%2F%2Fopen.demonii.com%3A1337&tr=udp%3A%2F%2Ftracker.coppersurfer.tk%3A6969&tr=udp%3A%2F%2Fexodus.desync.com%3A6969","uploader":"MFreaky","categoryP":"video","categoryS":"hd___movies","size":"2230643419","seeders":"1","leechers":"6","description":" <a href=\"https://pichub.site/image/EFi89\" rel=\"nofollow\" target=\"_NEW\">https://pichub.site/image/EFi89</a> <a href=\"\nhttps://pichub.site/image/EFtlu\" rel=\"nofollow\" target=\"_NEW\">\nhttps://pichub.site/image/EFtlu</a> <a href=\"\nhttps://pichub.site/image/EF84R\" rel=\"nofollow\" target=\"_NEW\">\nhttps://pichub.site/image/EF84R</a> <a href=\"\nhttps://pichub.site/image/EFAys\" rel=\"nofollow\" target=\"_NEW\">\nhttps://pichub.site/image/EFAys</a> <a href=\"\nhttps://pichub.site/image/EFBLB\" rel=\"nofollow\" target=\"_NEW\">\nhttps://pichub.site/image/EFBLB</a>\r\n\r\nIMDB  <a href=\"\nhttps://www.imdb.com/title/tt4073790/\" rel=\"nofollow\" target=\"_NEW\">\nhttps://www.imdb.com/title/tt4073790/</a>\r\n\r\nVideo\r\nFormat                                   : AVC\r\nFormat/Info                              : Advanced Video Codec\r\nFormat profile                           : High@L4.1\r\nFormat settings                          : CABAC / 4 Ref Frames\r\nFormat settings, CABAC                   : Yes\r\nFormat settings, RefFrames               : 4 frames\r\nCodec ID                                 : V_MPEG4/ISO/AVC\r\nDuration                                 : 1 h 44 min\r\nBit rate                                 : 2 500 kb/s\r\nWidth                                    : 1 920 pixels\r\nHeight                                   : 804 pixels\r\nDisplay aspect ratio                     : 2.40:1\r\nFrame rate mode                          : Constant\r\nFrame rate                               : 24.000 FPS\r\nColor space                              : YUV\r\nChroma subsampling                       : 4:2:0\r\nBit depth                                : 8 bits\r\nBits/(Pixel*Frame)                       : 0.067\r\nStream size                              : 1.80 GiB (87%)\r\nWriting library                          : x264 core 155 r2901 7d0ff22\r\n\r\nAudio\r\nFormat                                   : AC-3\r\nFormat/Info                              : Audio Coding 3\r\nCodec ID                                 : A_AC3\r\nDuration                                 : 1 h 44 min\r\nBit rate mode                            : Constant\r\nBit rate                                 : 384 kb/s\r\nChannel(s)                               : 6 channels\r\nChannel positions                        : Front: L C R, Side: L R, LFE\r\nSampling rate                            : 48.0 kHz\r\nFrame rate                               : 31.250 FPS (1536 SPF)\r\nBit depth                                : 16 bits\r\nStream size                              : 285 MiB (13%)\r\nLanguage                                 : English","last_updated":"2018-10-03T12:06:00.588Z","parsed":{"xt":"urn:btih:2133613badda0626f46e25c6766b37a0d7b979ee","dn":"The Darkest Minds 2018 1080p WEB-DL DD 5.1 x264 [MW]","tr":["udp://exodus.desync.com:6969","udp://open.demonii.com:1337","udp://tracker.coppersurfer.tk:6969","udp://tracker.leechers-paradise.org:6969","udp://zer0day.ch:1337"],"infoHash":"2133613badda0626f46e25c6766b37a0d7b979ee","infoHashBuffer":{"type":"Buffer","data":[33,51,97,59,173,218,6,38,244,110,37,198,118,107,55,160,215,185,121,238]},"name":"The Darkest Minds 2018 1080p WEB-DL DD 5.1 x264 [MW]","announce":["udp://exodus.desync.com:6969","udp://open.demonii.com:1337","udp://tracker.coppersurfer.tk:6969","udp://tracker.leechers-paradise.org:6969","udp://zer0day.ch:1337"],"urlList":[]}}